<svg width="130" height="85" viewBox="0 0 130 85" fill="none" xmlns="http://www.w3.org/2000/svg">
<path d="M5.92888 44.877C7.65459 43.9567 9.23806 42.6298 10.6742 40.8834C12.1104 39.1373 13.4203 36.7989 14.6123 33.8842C14.9951 32.9478 15.3666 31.9165 15.7209 30.7939C16.0744 29.673 16.4122 28.4911 16.7346 27.2494C17.0563 26.009 17.3706 24.7382 17.6771 23.438C17.9836 22.1389 18.274 20.852 18.5484 19.5792C18.8226 18.3072 19.0651 17.0707 19.2993 15.906C19.5144 14.8361 19.8645 14.0386 20.3179 13.538C20.7706 13.0384 21.4991 12.6516 22.5053 12.3907C23.0703 12.2442 23.3532 12.1721 23.9196 12.0304C22.6663 21.3236 21.4175 30.6174 20.1725 39.9117C23.6758 38.9497 27.21 38.1004 30.7677 37.3657C32.3529 25.7708 33.944 14.1767 35.5405 2.58325C35.2645 2.63214 35.1263 2.65672 34.8505 2.70665C31.5112 3.31109 28.1901 4.01579 24.8933 4.81982C22.3164 5.44832 21.0325 5.78804 18.4757 6.51875C15.9251 7.24776 13.9282 8.47793 12.4721 10.1475C11.0154 11.8179 10.0195 13.9427 9.52616 16.4646C9.23338 17.9619 8.94473 19.4242 8.64272 20.8233C8.34014 22.2232 8.04638 23.5381 7.76067 24.7696C7.47471 26.0012 7.19638 27.1498 6.92721 28.2129C6.65754 29.277 6.38046 30.2542 6.09528 31.1451C5.81008 32.0365 5.54039 32.8086 5.28802 33.4595C4.81318 34.6848 4.28434 35.6243 3.70082 36.2758C3.11683 36.9279 2.51067 37.421 1.88267 37.7548C1.2535 38.0891 0.626879 38.4352 0 38.7941C0.150359 42.03 0.225564 43.6481 0.376025 46.8846C2.35039 46.462 4.20319 45.7974 5.92888 44.877Z" fill="#FF5A00"/>
<path d="M57.5249 18.3266C58.0897 17.5165 58.5966 16.6463 59.0453 15.7139C59.4939 14.7825 59.9178 13.8857 60.317 13.0234C60.4565 13.0195 60.5263 13.0176 60.6661 13.014C60.3333 13.9721 60.0504 14.9373 59.8183 15.9093C59.5855 16.8821 59.3858 17.846 59.22 18.8002C58.4715 23.8862 57.7238 28.9725 56.9767 34.0589C60.3985 33.8964 63.825 33.838 67.2502 33.8835C68.8601 22.6379 70.4724 11.3931 72.087 0.148416C68.6646 0.00514987 65.2378 -0.0343272 61.8129 0.0302469C58.2305 5.2669 54.6939 10.5326 51.1998 15.8291C50.6688 16.6255 50.1548 17.5291 49.6577 18.539C49.1604 19.5496 48.6799 20.5859 48.2162 21.6463C48.0575 21.662 47.9778 21.67 47.819 21.6863C48.1828 20.5371 48.5143 19.416 48.8126 18.3238C49.1109 17.2321 49.3261 16.1567 49.459 15.0969C50.138 10.2443 50.8176 5.39186 51.4983 0.53952C48.046 0.815725 44.602 1.19807 41.1727 1.68551C39.5695 13.2248 37.9717 24.7648 36.3787 36.3054C39.812 35.7167 43.2632 35.2337 46.7261 34.8577C50.2793 29.3162 53.8779 23.8067 57.5249 18.3266Z" fill="#FF5A00"/>
<path d="M87.0051 11.3509C87.1041 10.6115 87.3522 10.1279 87.7482 9.90364C88.1441 9.67946 88.7389 9.62182 89.5307 9.73775C93.0813 10.2576 96.6154 10.8904 100.126 11.6351C100.708 8.59281 100.999 7.07309 101.58 4.03602C95.9536 2.80989 90.2534 1.85331 84.5288 1.22442C82.411 0.978546 80.8824 1.22259 79.3577 2.45042C77.832 3.67877 76.9018 5.44215 76.5704 7.70942C75.3074 16.4885 74.0453 25.2678 72.7844 34.0473C76.3915 34.2132 79.9933 34.4947 83.5823 34.8909C84.7228 27.044 85.8637 19.1974 87.0051 11.3509Z" fill="#FF5A00"/>
<path d="M112.986 18.4769C113.244 17.899 113.445 17.3125 113.59 16.7179C113.735 16.1234 113.856 15.579 113.952 15.0844C114.493 15.2477 114.763 15.3305 115.302 15.4983C115.27 16.1101 115.254 16.7273 115.254 17.3487C115.254 17.9705 115.286 18.6185 115.35 19.293C115.579 22.2892 115.693 23.7875 115.921 26.785C113.67 26.075 112.54 25.7402 110.271 25.1107C111.359 22.4479 111.902 21.1212 112.986 18.4769ZM104.776 38.6065C105.835 35.9959 106.364 34.695 107.42 32.1016C110.478 32.9252 113.498 33.7977 116.525 34.7323C116.748 37.6702 116.859 39.1391 117.082 42.0776C120.567 43.2043 124.016 44.444 127.421 45.7942C126.021 34.9494 124.615 24.1057 123.202 13.2629C123.107 12.3774 122.743 11.5394 122.107 10.7556C121.472 9.97199 120.74 9.43552 119.911 9.15122C116.774 8.11137 113.643 7.13909 110.469 6.21924C109.628 5.98487 108.883 5.99768 108.235 6.25126C107.587 6.50538 107.099 7.01883 106.775 7.78666C102.39 17.2819 98.041 26.7935 93.731 36.3233C97.4367 36.9614 101.121 37.7229 104.776 38.6065Z" fill="#FF5A00"/>
<path d="M26.0931 58.7217C27.0537 58.1513 27.8783 57.4582 28.5641 56.636C29.2501 55.8145 29.8952 54.7601 30.5012 53.4722C31.1063 52.1851 31.7697 50.5693 32.4912 48.6282C33.212 46.6883 34.0977 44.3104 35.1495 41.5035C31.447 42.1668 27.7666 42.9535 24.1162 43.862C23.2056 46.7722 22.4272 49.1586 21.7789 51.0143C21.1305 52.8711 20.523 54.3365 19.9575 55.4084C19.3913 56.4813 18.7695 57.2856 18.092 57.8246C17.4142 58.3635 16.5599 58.7861 15.5312 59.1006C15.2837 59.176 15.16 59.2142 14.9126 59.2908C15.504 54.824 16.0964 50.3573 16.6898 45.8907C13.1867 46.9337 9.71753 48.0902 6.28872 49.3579C4.75017 61.2374 3.21962 73.1182 1.6972 85C5.09618 83.63 8.53944 82.3703 12.0195 81.2235C12.6668 76.3019 13.3154 71.3805 13.9651 66.4591C14.3406 66.3405 14.5285 66.2816 14.9046 66.1651C15.9648 65.8368 16.7703 65.7372 17.3179 65.8543C17.8651 65.9713 18.2855 66.449 18.5759 67.2818C18.8667 68.1155 19.1333 69.4477 19.3755 71.2772C19.6179 73.1078 19.9332 75.5887 20.3216 78.7218C23.906 77.741 27.5228 76.8783 31.164 76.1355C30.7382 73.2772 30.3705 70.8914 30.0595 68.9772C29.7488 67.0638 29.4217 65.5295 29.0788 64.3769C28.7357 63.2242 28.2946 62.3638 27.7562 61.7982C27.2175 61.2324 26.5239 60.8837 25.6778 60.7591C24.8311 60.634 23.7413 60.6229 22.4114 60.7391C22.4307 60.6164 22.4405 60.555 22.46 60.4321C23.9201 59.8567 25.1319 59.2922 26.0931 58.7217Z" fill="#FF5A00"/>
<path d="M54.6882 48.737C54.5483 49.7175 54.364 50.4832 54.1151 51.0061C53.866 51.5297 53.5086 51.8969 53.0447 52.1092C52.5796 52.3221 51.9159 52.4608 51.054 52.532C49.7298 52.6415 49.068 52.7028 47.7461 52.8382C48.0951 50.3481 48.2697 49.1037 48.6193 46.6154C49.8627 46.4946 51.2529 46.3732 52.7957 46.2617C53.3933 46.2183 53.8423 46.2708 54.1403 46.4151C54.4387 46.5595 54.6301 46.8188 54.7128 47.1892C54.7959 47.5603 54.7817 48.0814 54.6882 48.737ZM53.4429 62.1197C53.2798 63.2413 53.0446 64.1027 52.7461 64.6967C52.4473 65.291 51.9988 65.7167 51.4021 65.9775C50.8052 66.2384 49.9757 66.4142 48.9155 66.5153C47.8283 66.6191 46.7866 66.727 45.7852 66.8375C46.2035 63.847 46.413 62.3524 46.8312 59.3646C48.4393 59.1909 49.2441 59.1139 50.855 58.9789C51.6835 58.9094 52.3062 58.953 52.7211 59.1026C53.1354 59.2521 53.3933 59.5626 53.4927 60.03C53.5924 60.498 53.5774 61.1974 53.4429 62.1197ZM60.4947 39.3281C58.6497 38.8374 56.1977 38.6596 53.1442 38.8738C51.1527 39.0137 49.3621 39.1827 47.7725 39.3618C46.1829 39.5408 44.6939 39.7485 43.3061 39.9768C41.9183 40.2053 40.5151 40.4944 39.0982 40.8443C37.4974 52.4035 35.9017 63.9635 34.3118 75.5244C35.9203 75.3261 37.5086 75.1391 39.0738 74.9622C40.6383 74.7856 42.3718 74.5796 44.2731 74.3613C46.1736 74.1434 48.417 73.9068 51.0043 73.6921C53.8562 73.4555 56.2072 73.1016 58.0517 72.568C59.896 72.0345 61.3175 71.1616 62.3152 69.9187C63.3126 68.6757 63.9525 66.9192 64.2606 64.6714C64.6451 61.8666 64.3769 59.6446 63.4125 58.0507C62.4485 56.4571 60.6016 55.5591 57.8772 55.4444C57.897 55.3258 57.9073 55.2665 57.9271 55.148C60.3197 54.8515 62.016 54.1398 63.0135 52.9501C64.0111 51.7601 64.6815 50.0059 65.0088 47.6863C65.3452 45.3034 65.1334 43.4311 64.3852 42.0916C63.6371 40.7529 62.3399 39.8191 60.4947 39.3281Z" fill="#FF5A00"/>
<path d="M92.6487 41.1231C89.0846 45.707 85.5762 50.3328 82.0961 54.9814C81.5657 55.6806 81.0519 56.4901 80.5552 57.4089C80.0581 58.3283 79.5769 59.2766 79.1129 60.2519C78.9536 60.2387 78.8742 60.2321 78.7147 60.219C79.0795 59.1367 79.4113 58.0762 79.7097 57.0386C80.008 56.0018 80.2236 54.9658 80.3564 53.9303C81.0355 49.2022 81.7144 44.4742 82.3942 39.7463C78.9516 39.3908 75.4983 39.1409 72.0406 38.9972C70.4258 50.2425 68.8131 61.4881 67.2032 72.7339C70.679 72.7792 74.1533 72.9314 77.6197 73.1903C81.1723 68.309 84.7636 63.458 88.3961 58.6361C88.957 57.9291 89.4605 57.1515 89.9056 56.3012C90.3507 55.4516 90.7711 54.6324 91.1666 53.843C91.3051 53.8645 91.3743 53.8755 91.5124 53.8973C91.1828 54.7945 90.9026 55.7082 90.6721 56.6377C90.4413 57.5681 90.2433 58.4954 90.0786 59.4194C89.3359 64.369 88.5934 69.3186 87.8511 74.2681C91.2563 74.732 94.6474 75.2995 98.0183 75.9697C99.6043 65.0193 101.19 54.0688 102.776 43.1182C99.4212 42.3504 96.0434 41.685 92.6487 41.1231Z" fill="#FF5A00"/>
<path d="M127.942 65.072C128.885 64.2713 129.502 62.7679 129.825 60.5868C130.157 58.3509 130.021 56.4124 129.379 54.8068C128.736 53.2013 127.544 51.7717 125.792 50.5577C124.04 49.3438 121.672 48.1924 118.669 47.1889C116.208 46.3665 114.045 45.7956 112.191 45.4373C110.337 45.0789 108.499 44.8505 106.681 44.7482C106.856 47.7183 106.944 49.2033 107.119 52.1738C108.482 52.3606 109.688 52.5492 110.739 52.7291C111.788 52.909 112.828 53.1301 113.858 53.3914C114.888 53.6525 115.996 53.9728 117.181 54.3566C117.821 54.5641 118.334 54.7916 118.716 55.034C119.1 55.2769 119.363 55.5878 119.507 55.9631C119.65 56.3393 119.674 56.8386 119.579 57.4602C119.483 58.2788 119.339 58.9004 119.148 59.3265C118.956 59.7527 118.636 59.9969 118.189 60.0615C117.741 60.1261 117.086 60.017 116.22 59.7423C113.526 58.8871 112.172 58.4884 109.453 57.7485C109.123 60.3486 108.957 61.649 108.627 64.2506C111.543 65.0285 112.995 65.4503 115.883 66.3603C116.621 66.5927 117.189 66.8592 117.589 67.1535C117.989 67.4477 118.245 67.8357 118.357 68.3144C118.469 68.7925 118.458 69.4715 118.333 70.3434C118.203 71.2481 117.997 71.9253 117.709 72.371C117.421 72.8167 117.013 73.0684 116.484 73.1285C115.956 73.1883 115.241 73.0776 114.341 72.8035C113.054 72.4116 111.515 71.8772 109.72 71.2218C107.924 70.5664 105.822 69.7435 103.411 68.789C102.961 71.4135 102.736 72.7263 102.285 75.3538C103.623 76.0817 104.975 76.7556 106.339 77.3769C107.704 77.9985 109.212 78.6088 110.859 79.22C112.507 79.8309 114.424 80.47 116.604 81.1676C119.168 81.9882 121.269 82.4966 122.919 82.6394C124.569 82.7821 125.848 82.4321 126.762 81.563C127.675 80.6944 128.263 79.1816 128.555 77.0499C128.917 74.3993 128.697 72.0819 127.848 70.1388C126.999 68.1966 125.441 66.6601 123.157 65.5957C123.177 65.4849 123.186 65.4295 123.205 65.3186C125.425 65.9349 126.999 65.8723 127.942 65.072Z" fill="#FF5A00"/>
</svg>
