<svg width="314" height="68" viewBox="0 0 314 68" fill="none" xmlns="http://www.w3.org/2000/svg">
<path d="M49.7422 29.2305C49.7422 35.2773 48.6641 40.3516 46.5078 44.4531C44.375 48.5312 41.2344 51.5195 37.0859 53.418L49.4609 67.2344H35.5039L26.082 55.7031H25.2734C17.3984 55.7031 11.3516 53.418 7.13281 48.8477C2.91406 44.2773 0.804688 37.7148 0.804688 29.1602C0.804688 20.6055 2.91406 14.0781 7.13281 9.57812C11.375 5.05469 17.4453 2.79297 25.3438 2.79297C33.2422 2.79297 39.2773 5.06641 43.4492 9.61328C47.6445 14.1602 49.7422 20.6992 49.7422 29.2305ZM12.2305 29.2305C12.2305 34.9727 13.3203 39.2969 15.5 42.2031C17.6797 45.1094 20.9375 46.5625 25.2734 46.5625C33.9688 46.5625 38.3164 40.7852 38.3164 29.2305C38.3164 17.6523 33.9922 11.8633 25.3438 11.8633C21.0078 11.8633 17.7383 13.3281 15.5352 16.2578C13.332 19.1641 12.2305 23.4883 12.2305 29.2305ZM87.3945 55L85.9531 49.9727H85.3906C84.2422 51.8008 82.6133 53.2188 80.5039 54.2266C78.3945 55.2109 75.9922 55.7031 73.2969 55.7031C68.6797 55.7031 65.1992 54.4727 62.8555 52.0117C60.5117 49.5273 59.3398 45.9648 59.3398 41.3242V15.6953H70.0625V38.6523C70.0625 41.4883 70.5664 43.6211 71.5742 45.0508C72.582 46.457 74.1875 47.1602 76.3906 47.1602C79.3906 47.1602 81.5586 46.1641 82.8945 44.1719C84.2305 42.1562 84.8984 38.8281 84.8984 34.1875V15.6953H95.6211V55H87.3945ZM106.414 5.53516C106.414 2.04297 108.359 0.296875 112.25 0.296875C116.141 0.296875 118.086 2.04297 118.086 5.53516C118.086 7.19922 117.594 8.5 116.609 9.4375C115.648 10.3516 114.195 10.8086 112.25 10.8086C108.359 10.8086 106.414 9.05078 106.414 5.53516ZM117.594 55H106.871V15.6953H117.594V55ZM156.23 55H125.188V48.6719L143.398 23.8867H126.277V15.6953H155.598V22.6562L137.879 46.8086H156.23V55ZM160.555 40.0938V31.3047H179.434V40.0938H160.555ZM209.105 14.957C213.746 14.957 217.379 16.7734 220.004 20.4062C222.629 24.0156 223.941 28.9727 223.941 35.2773C223.941 41.7695 222.582 46.7969 219.863 50.3594C217.168 53.9219 213.488 55.7031 208.824 55.7031C204.207 55.7031 200.586 54.0273 197.961 50.6758H197.223L195.43 55H187.238V0.296875H197.961V13.0234C197.961 14.6406 197.82 17.2305 197.539 20.793H197.961C200.469 16.9023 204.184 14.957 209.105 14.957ZM205.66 23.5352C203.012 23.5352 201.078 24.3555 199.859 25.9961C198.641 27.6133 198.008 30.2969 197.961 34.0469V35.207C197.961 39.4258 198.582 42.4492 199.824 44.2773C201.09 46.1055 203.082 47.0195 205.801 47.0195C208.004 47.0195 209.75 46.0117 211.039 43.9961C212.352 41.957 213.008 39.0039 213.008 35.1367C213.008 31.2695 212.352 28.375 211.039 26.4531C209.727 24.5078 207.934 23.5352 205.66 23.5352ZM241.344 35.2773C241.344 39.168 241.977 42.1094 243.242 44.1016C244.531 46.0938 246.617 47.0898 249.5 47.0898C252.359 47.0898 254.41 46.1055 255.652 44.1367C256.918 42.1445 257.551 39.1914 257.551 35.2773C257.551 31.3867 256.918 28.4688 255.652 26.5234C254.387 24.5781 252.312 23.6055 249.43 23.6055C246.57 23.6055 244.508 24.5781 243.242 26.5234C241.977 28.4453 241.344 31.3633 241.344 35.2773ZM268.52 35.2773C268.52 41.6758 266.832 46.6797 263.457 50.2891C260.082 53.8984 255.383 55.7031 249.359 55.7031C245.586 55.7031 242.258 54.8828 239.375 53.2422C236.492 51.5781 234.277 49.1992 232.73 46.1055C231.184 43.0117 230.41 39.4023 230.41 35.2773C230.41 28.8555 232.086 23.8633 235.438 20.3008C238.789 16.7383 243.5 14.957 249.57 14.957C253.344 14.957 256.672 15.7773 259.555 17.418C262.438 19.0586 264.652 21.4141 266.199 24.4844C267.746 27.5547 268.52 31.1523 268.52 35.2773ZM285.43 34.9258L272.773 15.6953H284.938L292.566 28.2109L300.266 15.6953H312.43L299.633 34.9258L313.027 55H300.828L292.566 41.5352L284.27 55H272.105L285.43 34.9258Z" fill="url(#paint0_linear)"/>
<defs>
<linearGradient id="paint0_linear" x1="-14" y1="186.389" x2="343.205" y2="151.254" gradientUnits="userSpaceOnUse">
<stop stop-color="#8F00FF"/>
<stop offset="1" stop-color="#00A3FF"/>
</linearGradient>
</defs>
</svg>
